<?xml version="1.0" standalone="no"?>
<!DOCTYPE svg PUBLIC "-//W3C//DTD SVG 20010904//EN"
 "http://www.w3.org/TR/2001/REC-SVG-20010904/DTD/svg10.dtd">
<svg version="1.0" xmlns="http://www.w3.org/2000/svg"
 width="70.000000pt" height="70.000000pt" viewBox="0 0 70.000000 70.000000"
 preserveAspectRatio="xMidYMid meet">
<metadata>
Created by potrace 1.14, written by Peter Selinger 2001-2017
</metadata>
<g transform="translate(0.000000,70.000000) scale(0.100000,-0.100000)"
fill="#000000" stroke="none">
<path d="M449 635 c-2 -2 -22 -4 -44 -6 -22 -2 -47 -6 -55 -10 -72 -35 -103
-51 -116 -62 -48 -39 -84 -77 -110 -117 -16 -24 -46 -62 -66 -83 -21 -22 -35
-44 -32 -49 4 -6 1 -14 -6 -18 -18 -11 17 -79 49 -93 25 -11 61 -41 61 -52 0
-2 9 -15 19 -27 11 -13 29 -33 39 -46 12 -13 33 -24 51 -25 17 -1 31 -4 31 -7
0 -3 16 -5 35 -5 19 0 35 2 35 5 0 3 12 6 28 7 36 1 64 8 100 27 16 8 33 12
37 8 5 -4 5 -2 2 4 -4 7 6 17 23 24 27 11 109 90 111 107 3 20 7 76 13 172 3
57 9 107 12 112 11 19 14 58 4 64 -6 4 -8 10 -5 15 4 7 -40 22 -60 21 -2 0
-17 6 -32 14 -17 9 -29 11 -31 5 -2 -6 -10 -6 -23 0 -10 6 -19 8 -19 6 0 -3
-11 -1 -24 4 -13 5 -26 7 -27 5z"/>
</g>
</svg>
